<mxfile host="app.diagrams.net" modified="2024-02-17T13:16:20.497Z" agent="Mozilla/5.0 (Windows NT 10.0; Win64; x64) AppleWebKit/537.36 (KHTML, like Gecko) Chrome/121.0.0.0 Safari/537.36 Edg/121.0.0.0" version="23.1.5" etag="5e3OKz73tIvST0uBYH67" type="github">
  <diagram name="第 1 页" id="mEeOOFpHyjPsQEGlPZtG">
    <mxGraphModel>
      <root>
        <mxCell id="0" />
        <mxCell id="1" parent="0" />
      </root>
    </mxGraphModel>
  </diagram>
</mxfile>
